<?xml version="1.0" encoding="utf-8"?>
<!-- Generator: Adobe Illustrator 20.0.0, SVG Export Plug-In . SVG Version: 6.00 Build 0)  -->
<svg version="1.2" baseProfile="tiny" id="Layer_1" xmlns="http://www.w3.org/2000/svg" xmlns:xlink="http://www.w3.org/1999/xlink"
	 x="0px" y="0px" viewBox="0 0 24 24" xml:space="preserve">
<path fill="#FFFFFF" d="M3.1,15c0,0,2.4,3.6,7.2,3.5c3.1-0.1,7.5-1.5,8.7-6c0,0,1.3,0.2,2.2-0.8c-1.2,0.2-2-0.2-2-0.2s1.6,0,2-1
	c-1,0.4-2.1,0.1-2.1,0.1s-0.6-3.4-3.9-3.5c0,0,1.8-0.4,1.5-0.8c-0.2-0.3-1.5,0.3-1.5,0.3s0.7-0.3,0.7-0.6c-0.7,0.1-1.4,0.6-1.4,0.6
	s0.2-0.3,0.2-0.5c-1.7,0.9-2.8,4.4-2.8,4.4s-0.4-0.5-1.1-1c-1.7-1-4.9-2.2-4.9-2.2S5.5,8.6,7.2,9.6c-0.7,0.1-1,0.1-1,0.1
	s0,1.4,2,1.8c-0.9,0-1.2,0.5-1.2,0.5s0.5,1.2,2.2,1.1c-1.4,0.7-0.5,1.6,0.6,1.5C6.2,17.9,3.1,15,3.1,15"/>
</svg>
